<svg height="480pt" viewBox="-16 0 480 480" width="480pt" xmlns="http://www.w3.org/2000/svg"><path d="m376 144v-40c0-17.671875-14.328125-32-32-32s-32 14.328125-32 32v72h96c-17.671875 0-32-14.328125-32-32zm0 0" fill="#bddbff"/><path d="m408 176c17.671875 0 32-14.328125 32-32 0 17.671875-14.328125 32-32 32zm0 0" fill="#bddbff"/><path d="m72 312v48c0 35.347656 28.652344 64 64 64s64-28.652344 64-64v-48zm0 0" fill="#bddbff"/><path d="m224 312h-24v48h24c13.253906 0 24-10.746094 24-24s-10.746094-24-24-24zm0 0" fill="#bddbff"/><g fill="#3d9ae2"><path d="m96 112h176v16h-176zm0 0"/><path d="m48 160h224v16h-224zm0 0"/><path d="m48 112h32v16h-32zm0 0"/><path d="m432 0h-352c-8.835938 0-16 7.164062-16 16v48h-24c-22.082031.027344-39.9726562 17.917969-40 40v360c0 8.835938 7.164062 16 16 16h288c8.835938 0 16-7.164062 16-16v-280h88c22.082031-.027344 39.972656-17.917969 40-40v-128c0-8.835938-7.164062-16-16-16zm-128 464h-288v-360c0-13.253906 10.746094-24 24-24h272.207031c-5.292969 6.882812-8.175781 15.316406-8.207031 24zm16-296v-64c0-13.253906 10.746094-24 24-24s24 10.746094 24 24v40c-.011719 8.65625 2.796875 17.082031 8 24zm112-24c0 13.253906-10.746094 24-24 24s-24-10.746094-24-24v-40c.011719-10.613281-4.199219-20.792969-11.703125-28.296875s-17.683594-11.714844-28.296875-11.703125h-264v-48h352zm0 0"/><path d="m224 304h-152c-4.417969 0-8 3.582031-8 8v48c.121094 38.121094 29.933594 69.539062 67.992188 71.660156 38.0625 2.121094 71.179687-25.789062 75.535156-63.660156h16.472656c17.671875 0 32-14.328125 32-32s-14.328125-32-32-32zm-88 112c-30.914062-.035156-55.964844-25.085938-56-56v-40h112v40c-.035156 30.914062-25.085938 55.964844-56 56zm88-64h-16v-32h16c8.835938 0 16 7.164062 16 16s-7.164062 16-16 16zm0 0"/><path d="m144 224h-16c.085938 2.738281-.40625 5.464844-1.449219 8-1.667969 4.261719-2.480469 8.808594-2.398437 13.382812-.074219 5.585938 1.816406 11.015626 5.34375 15.34375 1.546875 1.609376 2.386718 3.769532 2.335937 6 .078125 2.722657-.414062 5.429688-1.449219 7.945313-1.65625 4.246094-2.464843 8.773437-2.382812 13.328125h16c-.078125-2.71875.414062-5.425781 1.449219-7.945312 1.667969-4.253907 2.480469-8.796876 2.398437-13.367188.074219-5.582031-1.816406-11.015625-5.34375-15.34375-1.546875-1.609375-2.386718-3.769531-2.335937-6-.085938-2.738281.40625-5.464844 1.449219-8 1.65625-4.25 2.464843-8.78125 2.382812-13.34375zm0 0"/><path d="m184 224h-16c.085938 2.738281-.40625 5.464844-1.449219 8-1.667969 4.261719-2.480469 8.808594-2.398437 13.382812-.074219 5.585938 1.816406 11.015626 5.34375 15.34375 1.546875 1.609376 2.386718 3.769532 2.335937 6 .078125 2.722657-.414062 5.429688-1.449219 7.945313-1.65625 4.246094-2.464843 8.773437-2.382812 13.328125h16c-.078125-2.71875.414062-5.425781 1.449219-7.945312 1.667969-4.253907 2.480469-8.796876 2.398437-13.367188.074219-5.582031-1.816406-11.015625-5.34375-15.34375-1.546875-1.609375-2.386718-3.769531-2.335937-6-.085938-2.738281.40625-5.464844 1.449219-8 1.65625-4.25 2.464843-8.78125 2.382812-13.34375zm0 0"/><path d="m104 224h-16c.085938 2.738281-.40625 5.464844-1.449219 8-1.667969 4.261719-2.480469 8.808594-2.398437 13.382812-.074219 5.585938 1.816406 11.015626 5.34375 15.34375 1.546875 1.609376 2.386718 3.769532 2.335937 6 .078125 2.722657-.414062 5.429688-1.449219 7.945313-1.65625 4.246094-2.464843 8.773437-2.382812 13.328125h16c-.078125-2.71875.414062-5.425781 1.449219-7.945312 1.667969-4.253907 2.480469-8.796876 2.398437-13.367188.074219-5.582031-1.816406-11.015625-5.34375-15.34375-1.546875-1.609375-2.386718-3.769531-2.335937-6-.085938-2.738281.40625-5.464844 1.449219-8 1.65625-4.25 2.464843-8.78125 2.382812-13.34375zm0 0"/></g></svg>