<?xml version="1.0" encoding="iso-8859-1"?>
<!-- Generator: Adobe Illustrator 19.0.0, SVG Export Plug-In . SVG Version: 6.00 Build 0)  -->
<svg xmlns="http://www.w3.org/2000/svg" xmlns:xlink="http://www.w3.org/1999/xlink" version="1.1" id="Capa_1" x="0px" y="0px" viewBox="0 0 512.007 512.007" style="enable-background:new 0 0 512.007 512.007;" xml:space="preserve" width="512px" height="512px">
<g>
	<g>
		<path d="M510.606,278.946c-6.976-67.424-39.648-133.408-92-185.76C309.582-15.773,147.918-31.485,58.254,58.274    c-89.728,89.728-74.048,251.328,34.944,360.32c52.352,52.352,118.336,85.024,185.76,92c8.992,0.928,17.856,1.408,26.592,1.408    c57.984,0,109.824-20.32,148-58.496C497.454,409.634,517.742,347.618,510.606,278.946z M351.054,334.274    c-35.712-27.264-74.432-38.048-116.48-49.568C128.718,255.682,76.142,167.362,63.854,63.843    c29.824,35.968,51.84,77.056,88.448,107.168c39.008,32.064,81.952,43.744,129.12,57.408    c103.552,30.048,154.784,117.6,166.56,219.52C415.662,409.091,391.95,365.506,351.054,334.274z" fill="#006DF0"/>
	</g>
</g>
<g>
</g>
<g>
</g>
<g>
</g>
<g>
</g>
<g>
</g>
<g>
</g>
<g>
</g>
<g>
</g>
<g>
</g>
<g>
</g>
<g>
</g>
<g>
</g>
<g>
</g>
<g>
</g>
<g>
</g>
</svg>
